<svg width="22" height="24" viewBox="0 0 22 24" fill="none" xmlns="http://www.w3.org/2000/svg">
<path d="M0.750001 9.23095L0.749999 9.2298C0.749931 9.18495 0.757476 9.14247 0.770398 9.10556C0.772005 9.10231 0.781317 9.08515 0.811849 9.05162C0.856525 9.00256 0.91528 8.95106 1.01439 8.86727L10.2163 1.0885L9.74133 0.526661L10.2163 1.0885C10.2776 1.0367 10.3332 0.984727 10.3776 0.942805C10.3887 0.932267 10.399 0.922505 10.4087 0.913336C10.4413 0.882449 10.4668 0.858286 10.4939 0.833787C10.5587 0.775332 10.588 0.757211 10.5991 0.751475C10.6142 0.759112 10.6465 0.779402 10.7172 0.84078C10.7287 0.850748 10.7459 0.866163 10.7669 0.885017C10.8309 0.94245 10.9304 1.03179 11.0129 1.09627L20.9991 8.89668C21.0963 8.97266 21.1542 9.02115 21.1957 9.06501C21.2188 9.08945 21.2278 9.10332 21.2303 9.10757C21.2428 9.14401 21.2501 9.18576 21.25 9.2298V9.23095V23.0154C21.25 23.1112 21.2163 23.1845 21.1834 23.2228C21.1681 23.2406 21.1562 23.2474 21.152 23.2494C21.1515 23.2497 21.1511 23.2499 21.1508 23.25H14.3877C14.3873 23.2499 14.3869 23.2497 14.3864 23.2494C14.3822 23.2474 14.3704 23.2406 14.3551 23.2228C14.3222 23.1845 14.2885 23.1112 14.2885 23.0154V16.1232C14.2885 15.6705 14.0994 15.2559 13.8428 14.9574C13.5933 14.667 13.1908 14.3886 12.6923 14.3886H9.30769C8.80974 14.3886 8.40779 14.6665 8.15877 14.9543C7.90322 15.2497 7.71154 15.6622 7.71154 16.1133V23.0154C7.71154 23.1112 7.67781 23.1845 7.64489 23.2228C7.62959 23.2406 7.61775 23.2474 7.61356 23.2494C7.61306 23.2497 7.61265 23.2499 7.61232 23.25H0.84922C0.848887 23.2499 0.848476 23.2497 0.847983 23.2494C0.843785 23.2474 0.831945 23.2406 0.816645 23.2228C0.783728 23.1845 0.75 23.1112 0.75 23.0154L0.750001 9.23095Z" stroke="#BFBFBF" stroke-width="1.5"/>
</svg>
