<svg width="22" height="24" viewBox="0 0 22 24" fill="none" xmlns="http://www.w3.org/2000/svg">
<path d="M8.46154 16.1133V23.0154C8.46154 23.2765 8.37239 23.527 8.21371 23.7116C8.05502 23.8963 7.8398 24 7.61538 24H0.846155C0.621741 24 0.406519 23.8963 0.247834 23.7116C0.0891494 23.527 0 23.2765 0 23.0154V9.23095C-0.000197238 9.10156 0.0215219 8.9734 0.063917 8.85378C0.146353 8.6212 0.341758 8.45381 0.530206 8.29451L9.7321 0.515736C9.91041 0.364998 10.0645 0.176713 10.2748 0.0751868C10.3776 0.0255501 10.4878 0 10.5991 0C10.7104 0 10.8206 0.0255501 10.9234 0.0751868C11.1335 0.176625 11.2908 0.361604 11.4746 0.505213L21.4608 8.30563C21.655 8.4574 21.8537 8.6214 21.9361 8.85378C21.9785 8.9734 22.0002 9.10156 22 9.23095V23.0154C22 23.2765 21.9108 23.527 21.7522 23.7116C21.5935 23.8963 21.3783 24 21.1538 24H14.3846C14.1602 24 13.945 23.8963 13.7863 23.7116C13.6276 23.527 13.5385 23.2765 13.5385 23.0154V16.1232C13.5385 15.6309 13.1154 15.1386 12.6923 15.1386H9.30769C8.88461 15.1386 8.46154 15.6309 8.46154 16.1133Z" fill="white"/>
</svg>
