<svg width="22" height="24" viewBox="0 0 22 24" fill="none" xmlns="http://www.w3.org/2000/svg">
<path d="M21.5 5.2775V23C21.5 23.0874 21.4513 23.2166 21.3339 23.3339C21.2166 23.4513 21.0874 23.5 21 23.5H13C12.9126 23.5 12.7834 23.4513 12.6661 23.3339C12.5487 23.2166 12.5 23.0874 12.5 23V1C12.5 0.836888 12.5392 0.75637 12.5694 0.71462C12.6018 0.669737 12.6554 0.626351 12.7482 0.589238C12.9416 0.511873 13.1938 0.501242 13.4426 0.500117C13.4529 0.504097 13.466 0.509372 13.4821 0.51623C13.5521 0.546043 13.6516 0.593584 13.7806 0.659752C14.0371 0.79129 14.3829 0.982199 14.791 1.21537C15.6056 1.68087 16.6481 2.30321 17.6783 2.9276C18.7079 3.55154 19.7221 4.17569 20.4792 4.64398C20.8576 4.87809 21.1717 5.07316 21.3911 5.20968L21.5 5.2775ZM13.4171 0.490905C13.4171 0.490925 13.4172 0.490945 13.4173 0.490965L13.4171 0.490905ZM1.5 1.00451V22.9955C1.49992 22.9975 1.49973 23.0015 1.49932 23.0073C1.49831 23.0214 1.49606 23.0447 1.49118 23.0741C1.48101 23.1351 1.46161 23.2087 1.42779 23.2764C1.39494 23.3421 1.35353 23.3926 1.30077 23.4277C1.25115 23.4608 1.16251 23.5 1 23.5C0.837492 23.5 0.748852 23.4608 0.699225 23.4277C0.646468 23.3926 0.605056 23.3421 0.572214 23.2764C0.538392 23.2087 0.518989 23.1351 0.508822 23.0741C0.503936 23.0447 0.501686 23.0214 0.500682 23.0073C0.500266 23.0015 0.500078 22.9975 0.5 22.9955V1.00451C0.500078 1.00252 0.500266 0.998481 0.500682 0.992655C0.501686 0.978604 0.503936 0.955267 0.508822 0.92595C0.518989 0.864946 0.538392 0.79125 0.572214 0.723607C0.605056 0.657922 0.646468 0.607447 0.699225 0.572275C0.748852 0.53919 0.837492 0.5 1 0.5C1.16251 0.5 1.25115 0.53919 1.30077 0.572275C1.35353 0.607447 1.39494 0.657922 1.42779 0.723607C1.46161 0.79125 1.48101 0.864946 1.49118 0.92595C1.49606 0.955267 1.49831 0.978604 1.49932 0.992655C1.49973 0.998481 1.49992 1.00252 1.5 1.00451ZM7.5 1.00451V22.9955C7.49992 22.9975 7.49973 23.0015 7.49932 23.0073C7.49831 23.0214 7.49606 23.0447 7.49118 23.0741C7.48101 23.1351 7.46161 23.2087 7.42779 23.2764C7.39494 23.3421 7.35353 23.3926 7.30078 23.4277C7.25115 23.4608 7.16251 23.5 7 23.5C6.83749 23.5 6.74885 23.4608 6.69922 23.4277C6.64647 23.3926 6.60506 23.3421 6.57221 23.2764C6.53839 23.2087 6.51899 23.1351 6.50882 23.0741C6.50394 23.0447 6.50169 23.0214 6.50068 23.0073C6.50027 23.0015 6.50008 22.9975 6.5 22.9955V1.00451C6.50008 1.00252 6.50027 0.998483 6.50068 0.992655C6.50169 0.978604 6.50394 0.955267 6.50882 0.925949C6.51899 0.864946 6.53839 0.791249 6.57221 0.723607C6.60506 0.657922 6.64647 0.607447 6.69922 0.572275C6.74885 0.53919 6.83749 0.5 7 0.5C7.16251 0.5 7.25115 0.53919 7.30078 0.572275C7.35353 0.607447 7.39494 0.657922 7.42779 0.723607C7.46161 0.791249 7.48101 0.864946 7.49118 0.925949C7.49606 0.955267 7.49831 0.978604 7.49932 0.992655C7.49973 0.998483 7.49992 1.00252 7.5 1.00451Z" stroke="#BFBFBF"/>
</svg>
