<svg width="24" height="24" viewBox="0 0 24 24" fill="none" xmlns="http://www.w3.org/2000/svg">
<path d="M17.8901 17.8595C19.4031 15.6658 20.5389 12.2571 20.2456 9.55527C19.9524 6.85347 18.7099 4.36894 16.7667 2.59876C14.8235 0.828582 12.3229 -0.0967084 9.76521 0.00800922C7.20753 0.112727 4.78138 1.23973 2.97213 3.16355C1.16289 5.08736 0.103982 7.66611 0.00726021 10.3839C-0.0894614 13.1017 0.783136 15.758 2.45048 17.8215C4.11782 19.885 6.45694 21.2035 8.99987 21.5132C11.5428 21.8228 14.7499 20.6149 16.8134 19.0057H16.8118C16.8587 19.0721 16.9087 19.1352 16.9649 19.1966L21.437 23.3748C21.7299 23.6863 22.1274 23.8615 22.5419 23.8616C22.9564 23.8618 22.706 24.1729 22.9992 23.8616C23.2924 23.5503 22.9991 23.8168 22.9992 23.3764C22.9994 22.936 22.8349 22.5136 22.5419 22.202L18.0698 18.0239C18.014 17.9638 17.9539 17.9099 17.8901 17.8595ZM18.7514 10.7886C18.7514 11.9878 18.5291 13.1752 18.0972 14.283C17.6654 15.3909 17.0324 16.3976 16.2344 17.2455C15.4363 18.0934 14.489 18.766 13.4463 19.2249C12.4037 19.6838 11.2862 19.92 10.1577 19.92C9.02911 19.92 7.91161 19.6838 6.86897 19.2249C5.82633 18.766 4.87896 18.0934 4.08095 17.2455C3.28295 16.3976 2.64994 15.3909 2.21806 14.283C1.78619 13.1752 1.5639 11.9878 1.5639 10.7886C1.5639 8.3668 2.46931 6.04418 4.08095 4.33171C5.69259 2.61924 7.87845 1.65718 10.1577 1.65718C12.4369 1.65718 14.6227 2.61924 16.2344 4.33171C17.846 6.04418 18.7514 8.3668 18.7514 10.7886Z" fill="white"/>
<path d="M16.2343 10.7886C16.2343 14.2512 13.6203 17.2455 10.1576 17.2455C6.69499 17.2455 4.08093 14.2512 4.08093 10.7886C4.08093 7.32595 6.69499 4.33171 10.1576 4.33171C13.6203 4.33171 16.2343 7.32595 16.2343 10.7886Z" fill="white"/>
</svg>
